<svg width="863" height="564" viewBox="0 0 863 564" fill="none" xmlns="http://www.w3.org/2000/svg">
<path d="M863 488C863 478.02 861.034 468.137 857.215 458.916C853.395 449.695 847.797 441.317 840.74 434.26C833.683 427.203 825.305 421.605 816.084 417.785C806.863 413.966 796.98 412 787 412L787 488H863Z" fill="white"/>
<path d="M862.383 478.336C863.704 488.64 862.899 499.105 860.016 509.085C857.134 519.066 852.237 528.35 845.626 536.363C839.015 544.377 830.832 550.95 821.581 555.677C812.331 560.404 802.209 563.184 791.842 563.846C781.475 564.507 771.082 563.037 761.305 559.525C751.529 556.013 742.576 550.533 735 543.426C727.424 536.318 721.385 527.732 717.258 518.199C713.13 508.666 711 498.388 711 488L787 488L862.383 478.336Z" fill="white"/>
<path d="M290.665 422.261L292.899 413.377H294.887L291.503 425H289.892L287.066 416.191L284.316 425H282.705L279.332 413.377H281.309L283.597 422.078L286.304 413.377H287.904L290.665 422.261ZM298.904 414.784C299.785 413.703 300.931 413.162 302.342 413.162C304.798 413.162 306.037 414.548 306.059 417.319V425H304.071V417.309C304.064 416.471 303.871 415.851 303.491 415.45C303.119 415.049 302.535 414.849 301.74 414.849C301.096 414.849 300.53 415.021 300.043 415.364C299.556 415.708 299.176 416.159 298.904 416.718V425H296.917V408.5H298.904V414.784ZM313.857 425.215C312.282 425.215 311 424.699 310.012 423.668C309.023 422.63 308.529 421.244 308.529 419.511V419.146C308.529 417.993 308.748 416.965 309.185 416.062C309.629 415.153 310.244 414.444 311.032 413.936C311.827 413.42 312.687 413.162 313.61 413.162C315.121 413.162 316.296 413.66 317.134 414.655C317.972 415.651 318.391 417.076 318.391 418.931V419.758H310.517C310.545 420.904 310.878 421.831 311.516 422.54C312.16 423.242 312.977 423.593 313.965 423.593C314.667 423.593 315.261 423.45 315.748 423.163C316.235 422.877 316.661 422.497 317.026 422.024L318.24 422.97C317.266 424.466 315.805 425.215 313.857 425.215ZM313.61 414.795C312.808 414.795 312.135 415.089 311.591 415.676C311.047 416.256 310.71 417.072 310.581 418.125H316.403V417.975C316.346 416.965 316.074 416.184 315.587 415.633C315.1 415.074 314.441 414.795 313.61 414.795ZM326.318 415.16C326.018 415.11 325.692 415.085 325.341 415.085C324.037 415.085 323.153 415.64 322.688 416.75V425H320.7V413.377H322.634L322.666 414.72C323.318 413.681 324.242 413.162 325.438 413.162C325.824 413.162 326.118 413.212 326.318 413.312V415.16ZM332.764 425.215C331.188 425.215 329.906 424.699 328.918 423.668C327.93 422.63 327.436 421.244 327.436 419.511V419.146C327.436 417.993 327.654 416.965 328.091 416.062C328.535 415.153 329.151 414.444 329.938 413.936C330.733 413.42 331.593 413.162 332.517 413.162C334.028 413.162 335.202 413.66 336.04 414.655C336.878 415.651 337.297 417.076 337.297 418.931V419.758H329.423C329.451 420.904 329.785 421.831 330.422 422.54C331.066 423.242 331.883 423.593 332.871 423.593C333.573 423.593 334.167 423.45 334.654 423.163C335.141 422.877 335.567 422.497 335.933 422.024L337.146 422.97C336.173 424.466 334.712 425.215 332.764 425.215ZM332.517 414.795C331.715 414.795 331.041 415.089 330.497 415.676C329.953 416.256 329.616 417.072 329.487 418.125H335.31V417.975C335.252 416.965 334.98 416.184 334.493 415.633C334.006 415.074 333.347 414.795 332.517 414.795ZM346.933 413.377L346.986 414.666C347.839 413.663 348.988 413.162 350.435 413.162C352.06 413.162 353.167 413.785 353.754 415.031C354.141 414.473 354.642 414.021 355.258 413.678C355.881 413.334 356.615 413.162 357.46 413.162C360.009 413.162 361.306 414.512 361.349 417.212V425H359.361V417.33C359.361 416.499 359.172 415.88 358.792 415.472C358.412 415.056 357.775 414.849 356.88 414.849C356.142 414.849 355.53 415.071 355.043 415.515C354.556 415.951 354.273 416.542 354.194 417.287V425H352.196V417.384C352.196 415.694 351.369 414.849 349.715 414.849C348.411 414.849 347.52 415.404 347.04 416.514V425H345.053V413.377H346.933ZM371.532 423.851C370.759 424.76 369.624 425.215 368.127 425.215C366.888 425.215 365.943 424.857 365.291 424.141C364.646 423.417 364.321 422.35 364.313 420.939V413.377H366.301V420.886C366.301 422.647 367.017 423.528 368.449 423.528C369.967 423.528 370.977 422.963 371.479 421.831V413.377H373.466V425H371.575L371.532 423.851ZM383.263 421.917C383.263 421.38 383.059 420.965 382.65 420.671C382.249 420.37 381.544 420.112 380.534 419.897C379.532 419.683 378.733 419.425 378.139 419.124C377.551 418.823 377.115 418.465 376.828 418.05C376.549 417.634 376.409 417.14 376.409 416.567C376.409 415.615 376.81 414.809 377.612 414.15C378.422 413.492 379.453 413.162 380.706 413.162C382.024 413.162 383.091 413.502 383.907 414.183C384.731 414.863 385.143 415.733 385.143 416.793H383.145C383.145 416.249 382.912 415.78 382.446 415.386C381.988 414.992 381.408 414.795 380.706 414.795C379.983 414.795 379.417 414.952 379.009 415.268C378.601 415.583 378.396 415.994 378.396 416.503C378.396 416.983 378.586 417.344 378.966 417.588C379.345 417.831 380.029 418.064 381.018 418.286C382.013 418.508 382.819 418.773 383.435 419.081C384.05 419.389 384.505 419.761 384.799 420.198C385.1 420.628 385.25 421.154 385.25 421.777C385.25 422.816 384.835 423.65 384.004 424.28C383.173 424.903 382.095 425.215 380.771 425.215C379.84 425.215 379.016 425.05 378.3 424.721C377.584 424.391 377.021 423.933 376.613 423.346C376.212 422.751 376.012 422.11 376.012 421.423H377.999C378.035 422.089 378.3 422.619 378.794 423.013C379.295 423.399 379.954 423.593 380.771 423.593C381.522 423.593 382.124 423.442 382.575 423.142C383.034 422.834 383.263 422.425 383.263 421.917ZM389.998 425H388.011V413.377H389.998V425ZM387.85 410.294C387.85 409.972 387.946 409.7 388.14 409.478C388.34 409.256 388.634 409.145 389.021 409.145C389.407 409.145 389.701 409.256 389.901 409.478C390.102 409.7 390.202 409.972 390.202 410.294C390.202 410.616 390.102 410.885 389.901 411.1C389.701 411.314 389.407 411.422 389.021 411.422C388.634 411.422 388.34 411.314 388.14 411.1C387.946 410.885 387.85 410.616 387.85 410.294ZM397.851 423.593C398.56 423.593 399.179 423.378 399.709 422.948C400.239 422.519 400.533 421.981 400.59 421.337H402.47C402.434 422.003 402.205 422.637 401.782 423.238C401.36 423.84 400.794 424.32 400.085 424.678C399.383 425.036 398.638 425.215 397.851 425.215C396.268 425.215 395.007 424.688 394.069 423.636C393.138 422.576 392.673 421.129 392.673 419.296V418.963C392.673 417.831 392.881 416.825 393.296 415.944C393.711 415.063 394.306 414.38 395.079 413.893C395.86 413.406 396.78 413.162 397.84 413.162C399.143 413.162 400.225 413.552 401.084 414.333C401.951 415.114 402.412 416.127 402.47 417.373H400.59C400.533 416.621 400.246 416.005 399.73 415.525C399.222 415.038 398.592 414.795 397.84 414.795C396.83 414.795 396.046 415.16 395.487 415.891C394.936 416.614 394.66 417.663 394.66 419.038V419.414C394.66 420.753 394.936 421.785 395.487 422.508C396.039 423.231 396.826 423.593 397.851 423.593ZM414.984 425.215C413.409 425.215 412.127 424.699 411.139 423.668C410.15 422.63 409.656 421.244 409.656 419.511V419.146C409.656 417.993 409.875 416.965 410.312 416.062C410.756 415.153 411.371 414.444 412.159 413.936C412.954 413.42 413.813 413.162 414.737 413.162C416.248 413.162 417.423 413.66 418.261 414.655C419.099 415.651 419.518 417.076 419.518 418.931V419.758H411.644C411.672 420.904 412.005 421.831 412.643 422.54C413.287 423.242 414.104 423.593 415.092 423.593C415.794 423.593 416.388 423.45 416.875 423.163C417.362 422.877 417.788 422.497 418.153 422.024L419.367 422.97C418.393 424.466 416.932 425.215 414.984 425.215ZM414.737 414.795C413.935 414.795 413.262 415.089 412.718 415.676C412.174 416.256 411.837 417.072 411.708 418.125H417.53V417.975C417.473 416.965 417.201 416.184 416.714 415.633C416.227 415.074 415.568 414.795 414.737 414.795ZM423.707 413.377L423.771 414.838C424.66 413.721 425.82 413.162 427.252 413.162C429.708 413.162 430.947 414.548 430.969 417.319V425H428.981V417.309C428.974 416.471 428.781 415.851 428.401 415.45C428.029 415.049 427.445 414.849 426.65 414.849C426.006 414.849 425.44 415.021 424.953 415.364C424.466 415.708 424.087 416.159 423.814 416.718V425H421.827V413.377H423.707ZM436.662 410.562V413.377H438.832V414.913H436.662V422.121C436.662 422.587 436.759 422.938 436.952 423.174C437.146 423.403 437.475 423.518 437.94 423.518C438.17 423.518 438.485 423.475 438.886 423.389V425C438.363 425.143 437.854 425.215 437.36 425.215C436.472 425.215 435.803 424.946 435.352 424.409C434.9 423.872 434.675 423.109 434.675 422.121V414.913H432.559V413.377H434.675V410.562H436.662ZM443.15 414.784C444.031 413.703 445.177 413.162 446.588 413.162C449.044 413.162 450.283 414.548 450.305 417.319V425H448.317V417.309C448.31 416.471 448.117 415.851 447.737 415.45C447.365 415.049 446.781 414.849 445.986 414.849C445.342 414.849 444.776 415.021 444.289 415.364C443.802 415.708 443.423 416.159 443.15 416.718V425H441.163V408.5H443.15V414.784ZM460.456 423.851C459.683 424.76 458.548 425.215 457.051 425.215C455.812 425.215 454.867 424.857 454.215 424.141C453.57 423.417 453.244 422.35 453.237 420.939V413.377H455.225V420.886C455.225 422.647 455.941 423.528 457.373 423.528C458.891 423.528 459.901 422.963 460.402 421.831V413.377H462.39V425H460.499L460.456 423.851ZM472.187 421.917C472.187 421.38 471.982 420.965 471.574 420.671C471.173 420.37 470.468 420.112 469.458 419.897C468.455 419.683 467.657 419.425 467.062 419.124C466.475 418.823 466.038 418.465 465.752 418.05C465.473 417.634 465.333 417.14 465.333 416.567C465.333 415.615 465.734 414.809 466.536 414.15C467.345 413.492 468.377 413.162 469.63 413.162C470.948 413.162 472.015 413.502 472.831 414.183C473.655 414.863 474.066 415.733 474.066 416.793H472.068C472.068 416.249 471.836 415.78 471.37 415.386C470.912 414.992 470.332 414.795 469.63 414.795C468.907 414.795 468.341 414.952 467.933 415.268C467.524 415.583 467.32 415.994 467.32 416.503C467.32 416.983 467.51 417.344 467.89 417.588C468.269 417.831 468.953 418.064 469.941 418.286C470.937 418.508 471.743 418.773 472.358 419.081C472.974 419.389 473.429 419.761 473.723 420.198C474.023 420.628 474.174 421.154 474.174 421.777C474.174 422.816 473.758 423.65 472.928 424.28C472.097 424.903 471.019 425.215 469.694 425.215C468.763 425.215 467.94 425.05 467.224 424.721C466.507 424.391 465.945 423.933 465.537 423.346C465.136 422.751 464.936 422.11 464.936 421.423H466.923C466.959 422.089 467.224 422.619 467.718 423.013C468.219 423.399 468.878 423.593 469.694 423.593C470.446 423.593 471.048 423.442 471.499 423.142C471.957 422.834 472.187 422.425 472.187 421.917ZM478.922 425H476.935V413.377H478.922V425ZM476.773 410.294C476.773 409.972 476.87 409.7 477.063 409.478C477.264 409.256 477.558 409.145 477.944 409.145C478.331 409.145 478.625 409.256 478.825 409.478C479.026 409.7 479.126 409.972 479.126 410.294C479.126 410.616 479.026 410.885 478.825 411.1C478.625 411.314 478.331 411.422 477.944 411.422C477.558 411.422 477.264 411.314 477.063 411.1C476.87 410.885 476.773 410.616 476.773 410.294ZM489.288 425C489.174 424.771 489.08 424.363 489.009 423.775C488.085 424.735 486.982 425.215 485.7 425.215C484.554 425.215 483.613 424.893 482.875 424.248C482.145 423.596 481.779 422.773 481.779 421.777C481.779 420.567 482.238 419.629 483.154 418.963C484.078 418.29 485.374 417.953 487.043 417.953H488.977V417.04C488.977 416.345 488.769 415.794 488.354 415.386C487.938 414.97 487.326 414.763 486.517 414.763C485.808 414.763 485.213 414.942 484.733 415.3C484.254 415.658 484.014 416.091 484.014 416.6H482.016C482.016 416.02 482.22 415.461 482.628 414.924C483.043 414.38 483.602 413.95 484.304 413.635C485.013 413.32 485.79 413.162 486.635 413.162C487.974 413.162 489.023 413.499 489.782 414.172C490.541 414.838 490.935 415.758 490.964 416.933V422.282C490.964 423.349 491.1 424.198 491.372 424.828V425H489.288ZM485.99 423.485C486.613 423.485 487.204 423.324 487.763 423.002C488.321 422.68 488.726 422.261 488.977 421.745V419.36H487.419C484.984 419.36 483.767 420.073 483.767 421.498C483.767 422.121 483.974 422.608 484.39 422.959C484.805 423.31 485.339 423.485 485.99 423.485ZM500.847 421.917C500.847 421.38 500.643 420.965 500.234 420.671C499.833 420.37 499.128 420.112 498.118 419.897C497.116 419.683 496.317 419.425 495.723 419.124C495.135 418.823 494.699 418.465 494.412 418.05C494.133 417.634 493.993 417.14 493.993 416.567C493.993 415.615 494.394 414.809 495.196 414.15C496.006 413.492 497.037 413.162 498.29 413.162C499.608 413.162 500.675 413.502 501.491 414.183C502.315 414.863 502.727 415.733 502.727 416.793H500.729C500.729 416.249 500.496 415.78 500.03 415.386C499.572 414.992 498.992 414.795 498.29 414.795C497.567 414.795 497.001 414.952 496.593 415.268C496.185 415.583 495.98 415.994 495.98 416.503C495.98 416.983 496.17 417.344 496.55 417.588C496.929 417.831 497.613 418.064 498.602 418.286C499.597 418.508 500.403 418.773 501.019 419.081C501.634 419.389 502.089 419.761 502.383 420.198C502.684 420.628 502.834 421.154 502.834 421.777C502.834 422.816 502.419 423.65 501.588 424.28C500.757 424.903 499.679 425.215 498.354 425.215C497.424 425.215 496.6 425.05 495.884 424.721C495.168 424.391 494.605 423.933 494.197 423.346C493.796 422.751 493.596 422.11 493.596 421.423H495.583C495.619 422.089 495.884 422.619 496.378 423.013C496.879 423.399 497.538 423.593 498.354 423.593C499.106 423.593 499.708 423.442 500.159 423.142C500.618 422.834 500.847 422.425 500.847 421.917ZM508.119 410.562V413.377H510.289V414.913H508.119V422.121C508.119 422.587 508.216 422.938 508.409 423.174C508.603 423.403 508.932 423.518 509.397 423.518C509.627 423.518 509.942 423.475 510.343 423.389V425C509.82 425.143 509.312 425.215 508.817 425.215C507.929 425.215 507.26 424.946 506.809 424.409C506.357 423.872 506.132 423.109 506.132 422.121V414.913H504.016V413.377H506.132V410.562H508.119ZM519.388 421.917C519.388 421.38 519.184 420.965 518.775 420.671C518.374 420.37 517.669 420.112 516.659 419.897C515.657 419.683 514.858 419.425 514.264 419.124C513.676 418.823 513.24 418.465 512.953 418.05C512.674 417.634 512.534 417.14 512.534 416.567C512.534 415.615 512.935 414.809 513.737 414.15C514.547 413.492 515.578 413.162 516.831 413.162C518.149 413.162 519.216 413.502 520.032 414.183C520.856 414.863 521.268 415.733 521.268 416.793H519.27C519.27 416.249 519.037 415.78 518.571 415.386C518.113 414.992 517.533 414.795 516.831 414.795C516.108 414.795 515.542 414.952 515.134 415.268C514.726 415.583 514.521 415.994 514.521 416.503C514.521 416.983 514.711 417.344 515.091 417.588C515.47 417.831 516.154 418.064 517.143 418.286C518.138 418.508 518.944 418.773 519.56 419.081C520.175 419.389 520.63 419.761 520.924 420.198C521.225 420.628 521.375 421.154 521.375 421.777C521.375 422.816 520.96 423.65 520.129 424.28C519.298 424.903 518.22 425.215 516.896 425.215C515.965 425.215 515.141 425.05 514.425 424.721C513.709 424.391 513.146 423.933 512.738 423.346C512.337 422.751 512.137 422.11 512.137 421.423H514.124C514.16 422.089 514.425 422.619 514.919 423.013C515.42 423.399 516.079 423.593 516.896 423.593C517.647 423.593 518.249 423.442 518.7 423.142C519.159 422.834 519.388 422.425 519.388 421.917ZM534.083 423.593C534.792 423.593 535.411 423.378 535.941 422.948C536.471 422.519 536.765 421.981 536.822 421.337H538.702C538.666 422.003 538.437 422.637 538.015 423.238C537.592 423.84 537.026 424.32 536.317 424.678C535.616 425.036 534.871 425.215 534.083 425.215C532.5 425.215 531.24 424.688 530.302 423.636C529.371 422.576 528.905 421.129 528.905 419.296V418.963C528.905 417.831 529.113 416.825 529.528 415.944C529.944 415.063 530.538 414.38 531.312 413.893C532.092 413.406 533.012 413.162 534.072 413.162C535.376 413.162 536.457 413.552 537.316 414.333C538.183 415.114 538.645 416.127 538.702 417.373H536.822C536.765 416.621 536.479 416.005 535.963 415.525C535.454 415.038 534.824 414.795 534.072 414.795C533.062 414.795 532.278 415.16 531.72 415.891C531.168 416.614 530.893 417.663 530.893 419.038V419.414C530.893 420.753 531.168 421.785 531.72 422.508C532.271 423.231 533.059 423.593 534.083 423.593ZM540.41 419.081C540.41 417.942 540.632 416.918 541.076 416.009C541.527 415.099 542.15 414.397 542.945 413.903C543.747 413.409 544.66 413.162 545.685 413.162C547.267 413.162 548.546 413.71 549.52 414.806C550.501 415.901 550.991 417.359 550.991 419.178V419.317C550.991 420.449 550.773 421.466 550.336 422.368C549.906 423.263 549.287 423.962 548.478 424.463C547.675 424.964 546.752 425.215 545.706 425.215C544.131 425.215 542.852 424.667 541.871 423.571C540.897 422.476 540.41 421.025 540.41 419.221V419.081ZM542.408 419.317C542.408 420.606 542.705 421.641 543.3 422.422C543.901 423.202 544.703 423.593 545.706 423.593C546.716 423.593 547.518 423.199 548.112 422.411C548.707 421.616 549.004 420.506 549.004 419.081C549.004 417.806 548.7 416.775 548.091 415.987C547.489 415.192 546.687 414.795 545.685 414.795C544.703 414.795 543.912 415.185 543.311 415.966C542.709 416.746 542.408 417.864 542.408 419.317ZM555.363 413.377L555.428 414.838C556.316 413.721 557.476 413.162 558.908 413.162C561.365 413.162 562.604 414.548 562.625 417.319V425H560.638V417.309C560.631 416.471 560.437 415.851 560.058 415.45C559.685 415.049 559.102 414.849 558.307 414.849C557.662 414.849 557.096 415.021 556.609 415.364C556.122 415.708 555.743 416.159 555.471 416.718V425H553.483V413.377H555.363ZM567.502 413.377L567.566 414.838C568.454 413.721 569.615 413.162 571.047 413.162C573.503 413.162 574.742 414.548 574.764 417.319V425H572.776V417.309C572.769 416.471 572.576 415.851 572.196 415.45C571.824 415.049 571.24 414.849 570.445 414.849C569.801 414.849 569.235 415.021 568.748 415.364C568.261 415.708 567.882 416.159 567.609 416.718V425H565.622V413.377H567.502ZM582.584 425.215C581.008 425.215 579.727 424.699 578.738 423.668C577.75 422.63 577.256 421.244 577.256 419.511V419.146C577.256 417.993 577.474 416.965 577.911 416.062C578.355 415.153 578.971 414.444 579.759 413.936C580.554 413.42 581.413 413.162 582.337 413.162C583.848 413.162 585.022 413.66 585.86 414.655C586.698 415.651 587.117 417.076 587.117 418.931V419.758H579.243C579.272 420.904 579.605 421.831 580.242 422.54C580.887 423.242 581.703 423.593 582.691 423.593C583.393 423.593 583.988 423.45 584.475 423.163C584.962 422.877 585.388 422.497 585.753 422.024L586.967 422.97C585.993 424.466 584.532 425.215 582.584 425.215ZM582.337 414.795C581.535 414.795 580.862 415.089 580.317 415.676C579.773 416.256 579.437 417.072 579.308 418.125H585.13V417.975C585.073 416.965 584.8 416.184 584.313 415.633C583.826 415.074 583.168 414.795 582.337 414.795ZM594.089 423.593C594.798 423.593 595.417 423.378 595.947 422.948C596.477 422.519 596.771 421.981 596.828 421.337H598.708C598.672 422.003 598.443 422.637 598.021 423.238C597.598 423.84 597.032 424.32 596.323 424.678C595.621 425.036 594.877 425.215 594.089 425.215C592.506 425.215 591.246 424.688 590.308 423.636C589.377 422.576 588.911 421.129 588.911 419.296V418.963C588.911 417.831 589.119 416.825 589.534 415.944C589.95 415.063 590.544 414.38 591.317 413.893C592.098 413.406 593.018 413.162 594.078 413.162C595.382 413.162 596.463 413.552 597.322 414.333C598.189 415.114 598.651 416.127 598.708 417.373H596.828C596.771 416.621 596.484 416.005 595.969 415.525C595.46 415.038 594.83 414.795 594.078 414.795C593.068 414.795 592.284 415.16 591.726 415.891C591.174 416.614 590.898 417.663 590.898 419.038V419.414C590.898 420.753 591.174 421.785 591.726 422.508C592.277 423.231 593.065 423.593 594.089 423.593ZM603.639 410.562V413.377H605.809V414.913H603.639V422.121C603.639 422.587 603.735 422.938 603.929 423.174C604.122 423.403 604.451 423.518 604.917 423.518C605.146 423.518 605.461 423.475 605.862 423.389V425C605.34 425.143 604.831 425.215 604.337 425.215C603.449 425.215 602.779 424.946 602.328 424.409C601.877 423.872 601.651 423.109 601.651 422.121V414.913H599.535V413.377H601.651V410.562H603.639ZM620.772 425C620.658 424.771 620.565 424.363 620.493 423.775C619.569 424.735 618.466 425.215 617.185 425.215C616.039 425.215 615.097 424.893 614.359 424.248C613.629 423.596 613.264 422.773 613.264 421.777C613.264 420.567 613.722 419.629 614.639 418.963C615.562 418.29 616.859 417.953 618.527 417.953H620.461V417.04C620.461 416.345 620.253 415.794 619.838 415.386C619.423 414.97 618.81 414.763 618.001 414.763C617.292 414.763 616.698 414.942 616.218 415.3C615.738 415.658 615.498 416.091 615.498 416.6H613.5C613.5 416.02 613.704 415.461 614.112 414.924C614.528 414.38 615.086 413.95 615.788 413.635C616.497 413.32 617.274 413.162 618.119 413.162C619.458 413.162 620.507 413.499 621.267 414.172C622.026 414.838 622.42 415.758 622.448 416.933V422.282C622.448 423.349 622.584 424.198 622.856 424.828V425H620.772ZM617.475 423.485C618.098 423.485 618.688 423.324 619.247 423.002C619.806 422.68 620.21 422.261 620.461 421.745V419.36H618.903C616.468 419.36 615.251 420.073 615.251 421.498C615.251 422.121 615.459 422.608 615.874 422.959C616.289 423.31 616.823 423.485 617.475 423.485ZM627.443 413.377L627.508 414.838C628.396 413.721 629.556 413.162 630.988 413.162C633.445 413.162 634.684 414.548 634.705 417.319V425H632.718V417.309C632.711 416.471 632.517 415.851 632.138 415.45C631.765 415.049 631.182 414.849 630.387 414.849C629.742 414.849 629.176 415.021 628.689 415.364C628.202 415.708 627.823 416.159 627.551 416.718V425H625.563V413.377H627.443ZM637.219 419.092C637.219 417.309 637.641 415.876 638.486 414.795C639.331 413.706 640.438 413.162 641.806 413.162C643.166 413.162 644.244 413.628 645.039 414.559V408.5H647.026V425H645.2L645.104 423.754C644.309 424.728 643.202 425.215 641.784 425.215C640.438 425.215 639.339 424.663 638.486 423.561C637.641 422.458 637.219 421.018 637.219 419.242V419.092ZM639.206 419.317C639.206 420.635 639.478 421.666 640.022 422.411C640.567 423.156 641.319 423.528 642.278 423.528C643.539 423.528 644.459 422.963 645.039 421.831V416.492C644.445 415.396 643.532 414.849 642.3 414.849C641.326 414.849 640.567 415.225 640.022 415.977C639.478 416.729 639.206 417.842 639.206 419.317ZM657.736 425H655.749V413.377H657.736V425ZM655.588 410.294C655.588 409.972 655.685 409.7 655.878 409.478C656.078 409.256 656.372 409.145 656.759 409.145C657.146 409.145 657.439 409.256 657.64 409.478C657.84 409.7 657.94 409.972 657.94 410.294C657.94 410.616 657.84 410.885 657.64 411.1C657.439 411.314 657.146 411.422 656.759 411.422C656.372 411.422 656.078 411.314 655.878 411.1C655.685 410.885 655.588 410.616 655.588 410.294ZM662.807 413.377L662.871 414.838C663.759 413.721 664.919 413.162 666.352 413.162C668.808 413.162 670.047 414.548 670.068 417.319V425H668.081V417.309C668.074 416.471 667.881 415.851 667.501 415.45C667.129 415.049 666.545 414.849 665.75 414.849C665.105 414.849 664.54 415.021 664.053 415.364C663.566 415.708 663.186 416.159 662.914 416.718V425H660.927V413.377H662.807ZM675.762 410.562V413.377H677.932V414.913H675.762V422.121C675.762 422.587 675.858 422.938 676.052 423.174C676.245 423.403 676.575 423.518 677.04 423.518C677.269 423.518 677.584 423.475 677.985 423.389V425C677.463 425.143 676.954 425.215 676.46 425.215C675.572 425.215 674.902 424.946 674.451 424.409C674 423.872 673.774 423.109 673.774 422.121V414.913H671.658V413.377H673.774V410.562H675.762ZM685.086 425.215C683.51 425.215 682.229 424.699 681.24 423.668C680.252 422.63 679.758 421.244 679.758 419.511V419.146C679.758 417.993 679.976 416.965 680.413 416.062C680.857 415.153 681.473 414.444 682.261 413.936C683.056 413.42 683.915 413.162 684.839 413.162C686.35 413.162 687.524 413.66 688.362 414.655C689.2 415.651 689.619 417.076 689.619 418.931V419.758H681.745C681.774 420.904 682.107 421.831 682.744 422.54C683.389 423.242 684.205 423.593 685.193 423.593C685.895 423.593 686.49 423.45 686.977 423.163C687.464 422.877 687.89 422.497 688.255 422.024L689.469 422.97C688.495 424.466 687.034 425.215 685.086 425.215ZM684.839 414.795C684.037 414.795 683.364 415.089 682.819 415.676C682.275 416.256 681.938 417.072 681.81 418.125H687.632V417.975C687.575 416.965 687.302 416.184 686.815 415.633C686.328 415.074 685.67 414.795 684.839 414.795ZM697.547 415.16C697.246 415.11 696.92 415.085 696.569 415.085C695.266 415.085 694.382 415.64 693.916 416.75V425H691.929V413.377H693.862L693.895 414.72C694.546 413.681 695.47 413.162 696.666 413.162C697.053 413.162 697.346 413.212 697.547 413.312V415.16ZM706.13 425C706.015 424.771 705.922 424.363 705.851 423.775C704.927 424.735 703.824 425.215 702.542 425.215C701.396 425.215 700.454 424.893 699.717 424.248C698.986 423.596 698.621 422.773 698.621 421.777C698.621 420.567 699.079 419.629 699.996 418.963C700.92 418.29 702.216 417.953 703.885 417.953H705.818V417.04C705.818 416.345 705.611 415.794 705.195 415.386C704.78 414.97 704.168 414.763 703.358 414.763C702.649 414.763 702.055 414.942 701.575 415.3C701.095 415.658 700.855 416.091 700.855 416.6H698.857C698.857 416.02 699.062 415.461 699.47 414.924C699.885 414.38 700.444 413.95 701.146 413.635C701.854 413.32 702.632 413.162 703.477 413.162C704.816 413.162 705.865 413.499 706.624 414.172C707.383 414.838 707.777 415.758 707.806 416.933V422.282C707.806 423.349 707.942 424.198 708.214 424.828V425H706.13ZM702.832 423.485C703.455 423.485 704.046 423.324 704.604 423.002C705.163 422.68 705.568 422.261 705.818 421.745V419.36H704.261C701.826 419.36 700.608 420.073 700.608 421.498C700.608 422.121 700.816 422.608 701.231 422.959C701.647 423.31 702.18 423.485 702.832 423.485ZM715.583 423.593C716.292 423.593 716.911 423.378 717.441 422.948C717.971 422.519 718.265 421.981 718.322 421.337H720.202C720.166 422.003 719.937 422.637 719.515 423.238C719.092 423.84 718.526 424.32 717.817 424.678C717.116 425.036 716.371 425.215 715.583 425.215C714 425.215 712.74 424.688 711.802 423.636C710.871 422.576 710.405 421.129 710.405 419.296V418.963C710.405 417.831 710.613 416.825 711.028 415.944C711.444 415.063 712.038 414.38 712.812 413.893C713.592 413.406 714.512 413.162 715.572 413.162C716.876 413.162 717.957 413.552 718.816 414.333C719.683 415.114 720.145 416.127 720.202 417.373H718.322C718.265 416.621 717.979 416.005 717.463 415.525C716.954 415.038 716.324 414.795 715.572 414.795C714.562 414.795 713.778 415.16 713.22 415.891C712.668 416.614 712.393 417.663 712.393 419.038V419.414C712.393 420.753 712.668 421.785 713.22 422.508C713.771 423.231 714.559 423.593 715.583 423.593ZM725.133 410.562V413.377H727.303V414.913H725.133V422.121C725.133 422.587 725.229 422.938 725.423 423.174C725.616 423.403 725.946 423.518 726.411 423.518C726.64 423.518 726.955 423.475 727.356 423.389V425C726.834 425.143 726.325 425.215 725.831 425.215C724.943 425.215 724.273 424.946 723.822 424.409C723.371 423.872 723.146 423.109 723.146 422.121V414.913H721.029V413.377H723.146V410.562H725.133Z" fill="white"/>
<g filter="url(#filter0_d)">
<path d="M307.992 278.469L333.559 350.656L358.988 278.469H385.922V378H365.346V350.793L367.396 303.83L340.531 378H326.449L299.652 303.898L301.703 350.793V378H281.195V278.469H307.992ZM446.83 370.48C441.954 376.405 435.209 379.367 426.596 379.367C418.666 379.367 412.605 377.089 408.412 372.531C404.265 367.974 402.146 361.298 402.055 352.502V304.035H421.811V351.818C421.811 359.52 425.32 363.371 432.338 363.371C439.037 363.371 443.64 361.047 446.146 356.398V304.035H465.971V378H447.377L446.83 370.48ZM520.932 357.561C520.932 355.145 519.724 353.254 517.309 351.887C514.939 350.474 511.111 349.221 505.824 348.127C488.233 344.436 479.438 336.962 479.438 325.705C479.438 319.143 482.149 313.674 487.572 309.299C493.041 304.878 500.173 302.668 508.969 302.668C518.357 302.668 525.854 304.878 531.459 309.299C537.11 313.719 539.936 319.462 539.936 326.525H520.18C520.18 323.7 519.268 321.376 517.445 319.553C515.622 317.684 512.774 316.75 508.9 316.75C505.574 316.75 502.999 317.502 501.176 319.006C499.353 320.51 498.441 322.424 498.441 324.748C498.441 326.936 499.467 328.713 501.518 330.08C503.614 331.402 507.123 332.564 512.045 333.566C516.967 334.523 521.114 335.617 524.486 336.848C534.923 340.676 540.141 347.307 540.141 356.74C540.141 363.485 537.247 368.954 531.459 373.146C525.671 377.294 518.197 379.367 509.037 379.367C502.839 379.367 497.325 378.273 492.494 376.086C487.709 373.853 483.949 370.822 481.215 366.994C478.48 363.12 477.113 358.951 477.113 354.484H495.844C496.026 357.993 497.325 360.682 499.74 362.551C502.156 364.419 505.391 365.354 509.447 365.354C513.23 365.354 516.078 364.647 517.992 363.234C519.952 361.776 520.932 359.885 520.932 357.561ZM573.773 378H553.949V304.035H573.773V378ZM552.787 284.895C552.787 281.932 553.767 279.494 555.727 277.58C557.732 275.666 560.443 274.709 563.861 274.709C567.234 274.709 569.923 275.666 571.928 277.58C573.933 279.494 574.936 281.932 574.936 284.895C574.936 287.902 573.91 290.363 571.859 292.277C569.854 294.191 567.188 295.148 563.861 295.148C560.535 295.148 557.846 294.191 555.795 292.277C553.79 290.363 552.787 287.902 552.787 284.895Z" fill="white"/>
<path d="M620.873 363.439C624.519 363.439 627.481 362.437 629.76 360.432C632.038 358.426 633.223 355.76 633.314 352.434H651.84C651.794 357.447 650.427 362.049 647.738 366.242C645.049 370.389 641.358 373.625 636.664 375.949C632.016 378.228 626.866 379.367 621.215 379.367C610.642 379.367 602.302 376.018 596.195 369.318C590.089 362.574 587.035 353.277 587.035 341.428V340.129C587.035 328.736 590.066 319.644 596.127 312.854C602.188 306.063 610.505 302.668 621.078 302.668C630.329 302.668 637.735 305.311 643.295 310.598C648.9 315.839 651.749 322.834 651.84 331.584H633.314C633.223 327.756 632.038 324.657 629.76 322.287C627.481 319.872 624.473 318.664 620.736 318.664C616.133 318.664 612.647 320.35 610.277 323.723C607.953 327.049 606.791 332.473 606.791 339.992V342.043C606.791 349.654 607.953 355.122 610.277 358.449C612.602 361.776 616.133 363.439 620.873 363.439ZM660.043 340.334C660.043 332.997 661.456 326.457 664.281 320.715C667.107 314.973 671.163 310.529 676.449 307.385C681.781 304.24 687.956 302.668 694.975 302.668C704.955 302.668 713.09 305.721 719.379 311.828C725.714 317.935 729.245 326.229 729.975 336.711L730.111 341.77C730.111 353.117 726.944 362.232 720.609 369.113C714.275 375.949 705.775 379.367 695.111 379.367C684.447 379.367 675.925 375.949 669.545 369.113C663.21 362.277 660.043 352.98 660.043 341.223V340.334ZM679.799 341.77C679.799 348.788 681.12 354.165 683.764 357.902C686.407 361.594 690.189 363.439 695.111 363.439C699.896 363.439 703.633 361.617 706.322 357.971C709.011 354.279 710.355 348.4 710.355 340.334C710.355 333.452 709.011 328.12 706.322 324.338C703.633 320.555 699.851 318.664 694.975 318.664C690.144 318.664 686.407 320.555 683.764 324.338C681.12 328.075 679.799 333.885 679.799 341.77Z" fill="#6236FF"/>
</g>
<path d="M406 206C406 165.257 394.094 125.429 371.788 91.5525C349.482 57.676 317.778 31.2725 280.685 15.6808C243.591 0.0891637 202.775 -3.99032 163.397 3.95823C124.019 11.9068 87.8474 31.5264 59.4573 60.336C31.0673 89.1456 11.7334 125.851 3.90059 165.811C-3.93221 205.771 0.0878657 247.191 15.4525 284.833C30.817 322.474 56.8361 354.647 90.2192 377.283C123.602 399.918 162.85 412 203 412V206H406Z" fill="#6236FF"/>
<defs>
<filter id="filter0_d" x="277.195" y="274.709" width="456.916" height="112.658" filterUnits="userSpaceOnUse" color-interpolation-filters="sRGB">
<feFlood flood-opacity="0" result="BackgroundImageFix"/>
<feColorMatrix in="SourceAlpha" type="matrix" values="0 0 0 0 0 0 0 0 0 0 0 0 0 0 0 0 0 0 127 0"/>
<feOffset dy="4"/>
<feGaussianBlur stdDeviation="2"/>
<feColorMatrix type="matrix" values="0 0 0 0 0 0 0 0 0 0 0 0 0 0 0 0 0 0 0.25 0"/>
<feBlend mode="normal" in2="BackgroundImageFix" result="effect1_dropShadow"/>
<feBlend mode="normal" in="SourceGraphic" in2="effect1_dropShadow" result="shape"/>
</filter>
</defs>
</svg>
